<svg width="177" height="91" viewBox="0 0 177 91" fill="none" xmlns="http://www.w3.org/2000/svg">
<path d="M26.88 69.704C21.888 69.704 17.6 68.744 14.016 66.824C10.432 64.904 7.68 62.1947 5.76 58.696C3.88267 55.1973 2.944 51.1013 2.944 46.408C2.944 41.7147 3.88267 37.64 5.76 34.184C7.68 30.6853 10.432 27.976 14.016 26.056C17.6 24.136 21.888 23.176 26.88 23.176C28.8427 23.176 30.8693 23.4107 32.96 23.88C35.0933 24.3067 36.9707 24.968 38.592 25.864C39.7867 26.504 40.6187 27.3147 41.088 28.296C41.5573 29.2773 41.728 30.28 41.6 31.304C41.472 32.328 41.088 33.2453 40.448 34.056C39.8507 34.8667 39.0827 35.4213 38.144 35.72C37.2053 35.976 36.1813 35.8267 35.072 35.272C32.5547 34.0347 29.9733 33.416 27.328 33.416C23.36 33.416 20.3733 34.5467 18.368 36.808C16.3627 39.0267 15.36 42.2267 15.36 46.408C15.36 50.632 16.3627 53.8747 18.368 56.136C20.3733 58.3547 23.36 59.464 27.328 59.464C28.4373 59.464 29.632 59.336 30.912 59.08C32.192 58.7813 33.4507 58.3333 34.688 57.736C35.968 57.1813 37.0987 57.032 38.08 57.288C39.104 57.544 39.936 58.056 40.576 58.824C41.216 59.592 41.6 60.488 41.728 61.512C41.8987 62.4933 41.7707 63.4747 41.344 64.456C40.9173 65.4373 40.128 66.2267 38.976 66.824C37.4827 67.72 35.6267 68.424 33.408 68.936C31.232 69.448 29.056 69.704 26.88 69.704ZM49.5205 69.576C47.5152 69.576 46.0432 68.8933 45.1045 67.528C44.1658 66.1627 44.1658 64.456 45.1045 62.408L61.0405 28.104C61.8085 26.44 62.7472 25.224 63.8565 24.456C64.9658 23.688 66.2672 23.304 67.7605 23.304C69.2112 23.304 70.4912 23.688 71.6005 24.456C72.7098 25.224 73.6485 26.44 74.4165 28.104L90.3525 62.408C91.3338 64.4987 91.3765 66.2267 90.4805 67.592C89.5845 68.9147 88.1765 69.576 86.2565 69.576C84.5498 69.576 83.2272 69.192 82.2885 68.424C81.3925 67.656 80.5818 66.4187 79.8565 64.712L77.8085 59.848H57.6485L55.6005 64.712C54.8325 66.4187 54.0432 67.656 53.2325 68.424C52.4218 69.192 51.1845 69.576 49.5205 69.576ZM67.6325 36.168L61.4885 50.824H73.9045L67.7605 36.168H67.6325ZM102.109 69.576C100.232 69.576 98.781 69.064 97.757 68.04C96.733 67.016 96.221 65.544 96.221 63.624V29.256C96.221 27.336 96.733 25.864 97.757 24.84C98.781 23.816 100.232 23.304 102.109 23.304C103.986 23.304 105.437 23.816 106.461 24.84C107.485 25.864 107.997 27.336 107.997 29.256V43.208H108.125L123.677 26.056C124.488 25.2027 125.341 24.5413 126.237 24.072C127.176 23.56 128.221 23.304 129.373 23.304C131.122 23.304 132.402 23.7733 133.213 24.712C134.024 25.608 134.386 26.6747 134.301 27.912C134.216 29.1493 133.725 30.2587 132.829 31.24L119.517 45.32L133.597 61.256C134.706 62.4933 135.261 63.752 135.261 65.032C135.261 66.312 134.813 67.4 133.917 68.296C133.021 69.1493 131.741 69.576 130.077 69.576C128.626 69.576 127.453 69.2987 126.557 68.744C125.661 68.1467 124.722 67.272 123.741 66.12L108.125 48.648H107.997V63.624C107.997 65.544 107.485 67.016 106.461 68.04C105.48 69.064 104.029 69.576 102.109 69.576ZM147.928 69C143.832 69 141.784 66.9733 141.784 62.92V29.96C141.784 25.9067 143.832 23.88 147.928 23.88H169.624C172.696 23.88 174.232 25.3733 174.232 28.36C174.232 31.432 172.696 32.968 169.624 32.968H153.048V41.544H168.216C171.288 41.544 172.824 43.0587 172.824 46.088C172.824 49.1173 171.288 50.632 168.216 50.632H153.048V59.912H169.624C172.696 59.912 174.232 61.4267 174.232 64.456C174.232 67.4853 172.696 69 169.624 69H147.928Z" fill="#F23D7E"/>
<path d="M171.5 42.5C168 42.5 169.5 55.4999 163.5 46.5C159 44.5 152.5 43.1045 152.5 41.9999C152.5 40.8954 157.265 41.5 162.236 41.5C167.206 41.5 171.5 41.3954 171.5 42.5Z" fill="#A5EED8"/>
<path d="M166.967 47.9785C166.625 48.3082 166.458 47.4302 165.725 46.6715C164.992 45.9127 163.945 45.2609 164.286 44.9312C164.627 44.6014 165.884 44.6569 166.617 45.4156C167.351 46.1744 167.308 47.6488 166.967 47.9785Z" fill="white" fill-opacity="0.65"/>
<path d="M66.4689 16.4667C66.4864 16.2041 66.7045 16 66.9678 16H69.0303C69.2943 16 69.5128 16.2053 69.5293 16.4688L70 24L68.2389 23.5597C68.0802 23.5201 67.9173 23.5 67.7538 23.5H66L66.4689 16.4667Z" fill="#A5EED8"/>
<path d="M73 11.5C73 15.0899 71.2614 16.5 68.5 16.5C65.7386 16.5 63 15.0899 63 11.5C63 7.91015 68 6.5 69.5 0C71 3 73 7.91015 73 11.5Z" fill="#FFFA85"/>
<path d="M71 12C71 13.6569 70.6569 15 69 15C67.3432 15 64.5 13.1569 64.5 11.5C64.5 9.84315 70.5 11 70 6.5C71.6569 6.5 71 10.3431 71 12Z" fill="#F4EF78"/>
</svg>
