<svg width="90" height="90" viewBox="0 0 90 90" fill="none" xmlns="http://www.w3.org/2000/svg">
<g clip-path="url(#clip0_30_90)">
<path d="M45 0C69.8535 0 90 20.1465 90 45C90 69.8535 69.8535 90 45 90C20.1465 90 0 69.8535 0 45C0 20.1465 20.1465 0 45 0ZM45 6.2775C34.7302 6.2775 24.8809 10.3572 17.6191 17.6191C10.3572 24.8809 6.2775 34.7302 6.2775 45C6.2775 55.2698 10.3572 65.1191 17.6191 72.3809C24.8809 79.6428 34.7302 83.7225 45 83.7225C55.2698 83.7225 65.1191 79.6428 72.3809 72.3809C79.6428 65.1191 83.7225 55.2698 83.7225 45C83.7225 34.7302 79.6428 24.8809 72.3809 17.6191C65.1191 10.3572 55.2698 6.2775 45 6.2775ZM40.815 25.1145C42.5475 25.1145 43.9515 26.523 43.9515 28.2555V50.2335H65.9295C66.7414 50.2642 67.5098 50.6084 68.0733 51.1937C68.6368 51.7789 68.9516 52.5598 68.9516 53.3723C68.9516 54.1847 68.6368 54.9656 68.0733 55.5508C67.5098 56.1361 66.7414 56.4803 65.9295 56.511H40.815C39.982 56.511 39.183 56.1801 38.594 55.591C38.0049 55.002 37.674 54.203 37.674 53.37V28.26C37.674 26.523 39.078 25.1145 40.815 25.1145Z" fill="#B176FB" fill-opacity="0.81"/>
</g>
<defs>
<clipPath id="clip0_30_90">
<rect width="90" height="90" fill="white"/>
</clipPath>
</defs>
</svg>
