<svg width="105" height="105" viewBox="0 0 105 105" fill="none" xmlns="http://www.w3.org/2000/svg">
<path d="M45.4322 9.04313C49.9816 7.29324 55.0184 7.29324 59.5678 9.04313L92.1309 21.5644C93.9874 22.2792 95.5837 23.5397 96.7095 25.1798C97.8353 26.8199 98.4377 28.7626 98.4375 30.7519V74.235C98.4377 76.2243 97.8353 78.167 96.7095 79.8071C95.5837 81.4472 93.9874 82.7077 92.1309 83.4225L59.5678 95.9503C55.0184 97.7002 49.9816 97.7002 45.4322 95.9503L12.8756 83.4225C11.018 82.7087 9.42027 81.4487 8.29323 79.8085C7.1662 78.1683 6.56276 76.2251 6.5625 74.235V30.7519C6.56276 28.7618 7.1662 26.8186 8.29323 25.1784C9.42027 23.5382 11.018 22.2782 12.8756 21.5644L45.4322 9.04313V9.04313ZM57.2119 15.1659C54.1789 13.9993 50.8211 13.9993 47.7881 15.1659L38.7056 18.6638L75.39 32.55L88.1737 27.0769L57.2119 15.1594V15.1659ZM91.875 32.6222L55.7812 48.1031V90.2869C56.2669 90.1622 56.7394 90.0112 57.2119 89.8275L89.775 77.3062C90.3938 77.0675 90.9256 76.6468 91.3005 76.0997C91.6754 75.5526 91.8757 74.9048 91.875 74.2416V32.6353V32.6222ZM49.2188 90.2803V48.1031L13.125 32.6288V74.235C13.1243 74.8982 13.3246 75.5461 13.6995 76.0932C14.0744 76.6403 14.6062 77.0609 15.225 77.2997L47.7881 89.8209C48.2606 90.0047 48.7331 90.1556 49.2188 90.2803V90.2803ZM16.8262 27.0769L52.5 42.3675L66.7012 36.2775L29.5116 22.1944L16.8262 27.0769Z" fill="#B176FB" fill-opacity="0.81"/>
</svg>
