<svg width="101" height="100" viewBox="0 0 101 100" fill="none" xmlns="http://www.w3.org/2000/svg">
<path d="M31.75 71.875C35.2018 71.875 38 69.0768 38 65.625C38 62.1732 35.2018 59.375 31.75 59.375C28.2982 59.375 25.5 62.1732 25.5 65.625C25.5 69.0768 28.2982 71.875 31.75 71.875Z" fill="#B176FB" fill-opacity="0.81"/>
<path d="M72.375 68.75C75.8268 68.75 78.625 65.9518 78.625 62.5C78.625 59.0482 75.8268 56.25 72.375 56.25C68.9232 56.25 66.125 59.0482 66.125 62.5C66.125 65.9518 68.9232 68.75 72.375 68.75Z" fill="#B176FB" fill-opacity="0.81"/>
<path d="M41.125 37.5C44.5768 37.5 47.375 34.7018 47.375 31.25C47.375 27.7982 44.5768 25 41.125 25C37.6732 25 34.875 27.7982 34.875 31.25C34.875 34.7018 37.6732 37.5 41.125 37.5Z" fill="#B176FB" fill-opacity="0.81"/>
<path d="M44.25 50C45.9759 50 47.375 48.6009 47.375 46.875C47.375 45.1491 45.9759 43.75 44.25 43.75C42.5241 43.75 41.125 45.1491 41.125 46.875C41.125 48.6009 42.5241 50 44.25 50Z" fill="#B176FB" fill-opacity="0.81"/>
<path d="M72.375 21.875C75.8268 21.875 78.625 19.0768 78.625 15.625C78.625 12.1732 75.8268 9.375 72.375 9.375C68.9232 9.375 66.125 12.1732 66.125 15.625C66.125 19.0768 68.9232 21.875 72.375 21.875Z" fill="#B176FB" fill-opacity="0.81"/>
<path d="M91.125 12.5C92.8509 12.5 94.25 11.1009 94.25 9.375C94.25 7.64911 92.8509 6.25 91.125 6.25C89.3991 6.25 88 7.64911 88 9.375C88 11.1009 89.3991 12.5 91.125 12.5Z" fill="#B176FB" fill-opacity="0.81"/>
<path d="M50.5 75C52.2259 75 53.625 73.6009 53.625 71.875C53.625 70.1491 52.2259 68.75 50.5 68.75C48.7741 68.75 47.375 70.1491 47.375 71.875C47.375 73.6009 48.7741 75 50.5 75Z" fill="#B176FB" fill-opacity="0.81"/>
<path d="M50.5 93.75C26.4375 93.75 6.75 74.0625 6.75 50C6.75 25.9375 26.4375 6.25 50.5 6.25H51.4375L55.8125 6.5625L54.875 10.3125C54.5625 11.5625 54.25 13.125 54.25 14.375C54.25 23.125 61.125 30 69.875 30C73 30 76.125 29.0625 78.9375 27.1875L83 31.875C81.75 33.125 81.125 34.6875 81.125 36.25C81.125 40.3125 85.1875 43.75 89.5625 42.1875L93.3125 40.625L93.9375 44.6875C94.25 46.5625 94.25 48.4375 94.25 50C94.25 74.0625 74.5625 93.75 50.5 93.75ZM48.3125 12.5C28.625 13.75 13 30 13 50C13 70.625 29.875 87.5 50.5 87.5C71.125 87.5 88 70.625 88 50V48.75C80.8125 49.0625 74.875 43.4375 74.875 36.25V35.625C73.3125 35.9375 71.75 36.25 69.875 36.25C57.6875 36.25 48 26.5625 48 14.375C48 13.75 48 13.125 48.3125 12.5Z" fill="#B176FB" fill-opacity="0.81"/>
</svg>
