<svg width="152" height="153" viewBox="0 0 152 153" fill="none" xmlns="http://www.w3.org/2000/svg">
<path d="M3.59504 14V3.5H13.165V14H10.75V4.925L11.305 5.48H5.45504L6.01004 4.925V14H3.59504ZM20.7929 14.18C19.9629 14.18 19.1929 14.045 18.4829 13.775C17.7829 13.505 17.1729 13.125 16.6529 12.635C16.1429 12.145 15.7429 11.57 15.4529 10.91C15.1729 10.25 15.0329 9.53 15.0329 8.75C15.0329 7.97 15.1729 7.25 15.4529 6.59C15.7429 5.93 16.1479 5.355 16.6679 4.865C17.1879 4.375 17.7979 3.995 18.4979 3.725C19.1979 3.455 19.9579 3.32 20.7779 3.32C21.6079 3.32 22.3679 3.455 23.0579 3.725C23.7579 3.995 24.3629 4.375 24.8729 4.865C25.3929 5.355 25.7979 5.93 26.0879 6.59C26.3779 7.24 26.5229 7.96 26.5229 8.75C26.5229 9.53 26.3779 10.255 26.0879 10.925C25.7979 11.585 25.3929 12.16 24.8729 12.65C24.3629 13.13 23.7579 13.505 23.0579 13.775C22.3679 14.045 21.6129 14.18 20.7929 14.18ZM20.7779 12.11C21.2479 12.11 21.6779 12.03 22.0679 11.87C22.4679 11.71 22.8179 11.48 23.1179 11.18C23.4179 10.88 23.6479 10.525 23.8079 10.115C23.9779 9.705 24.0629 9.25 24.0629 8.75C24.0629 8.25 23.9779 7.795 23.8079 7.385C23.6479 6.975 23.4179 6.62 23.1179 6.32C22.8279 6.02 22.4829 5.79 22.0829 5.63C21.6829 5.47 21.2479 5.39 20.7779 5.39C20.3079 5.39 19.8729 5.47 19.4729 5.63C19.0829 5.79 18.7379 6.02 18.4379 6.32C18.1379 6.62 17.9029 6.975 17.7329 7.385C17.5729 7.795 17.4929 8.25 17.4929 8.75C17.4929 9.24 17.5729 9.695 17.7329 10.115C17.9029 10.525 18.1329 10.88 18.4229 11.18C18.7229 11.48 19.0729 11.71 19.4729 11.87C19.8729 12.03 20.3079 12.11 20.7779 12.11ZM30.5134 14V4.925L31.0684 5.48H27.1684V3.5H36.2734V5.48H32.3734L32.9134 4.925V14H30.5134ZM43.33 14V10.685L43.93 11.21H41.05C40.14 11.21 39.355 11.06 38.695 10.76C38.035 10.46 37.53 10.025 37.18 9.455C36.83 8.885 36.655 8.205 36.655 7.415C36.655 6.595 36.84 5.895 37.21 5.315C37.59 4.725 38.12 4.275 38.8 3.965C39.48 3.655 40.28 3.5 41.2 3.5H45.73V14H43.33ZM36.685 14L39.295 10.235H41.755L39.25 14H36.685ZM43.33 9.905V4.85L43.93 5.48H41.26C40.57 5.48 40.04 5.64 39.67 5.96C39.31 6.28 39.13 6.755 39.13 7.385C39.13 7.995 39.305 8.465 39.655 8.795C40.005 9.125 40.52 9.29 41.2 9.29H43.93L43.33 9.905ZM55.5607 3.5H57.9907V14H55.5607V3.5ZM50.7907 14H48.3607V3.5H50.7907V14ZM55.7407 9.695H50.6107V7.64H55.7407V9.695ZM60.6214 14V3.5H63.0364V10.34L68.0464 3.5H70.3264V14H67.9264V7.175L62.9164 14H60.6214ZM76.2438 13.07L76.9938 11.33C77.4438 11.6 77.9238 11.81 78.4338 11.96C78.9538 12.1 79.4588 12.18 79.9488 12.2C80.4488 12.21 80.8988 12.16 81.2988 12.05C81.7088 11.94 82.0338 11.775 82.2738 11.555C82.5238 11.335 82.6488 11.055 82.6488 10.715C82.6488 10.315 82.4838 10.02 82.1538 9.83C81.8238 9.63 81.3838 9.53 80.8338 9.53H78.2688V7.7H80.6538C81.1438 7.7 81.5238 7.6 81.7938 7.4C82.0738 7.2 82.2138 6.925 82.2138 6.575C82.2138 6.275 82.1138 6.035 81.9138 5.855C81.7138 5.665 81.4388 5.525 81.0888 5.435C80.7488 5.345 80.3638 5.305 79.9338 5.315C79.5038 5.325 79.0588 5.395 78.5988 5.525C78.1388 5.655 77.6988 5.835 77.2788 6.065L76.5438 4.19C77.2238 3.84 77.9388 3.6 78.6888 3.47C79.4488 3.33 80.1788 3.295 80.8788 3.365C81.5888 3.425 82.2288 3.585 82.7988 3.845C83.3688 4.095 83.8238 4.425 84.1638 4.835C84.5038 5.245 84.6738 5.73 84.6738 6.29C84.6738 6.79 84.5438 7.235 84.2838 7.625C84.0238 8.015 83.6588 8.315 83.1888 8.525C82.7288 8.735 82.1988 8.84 81.5988 8.84L81.6588 8.3C82.3588 8.3 82.9638 8.42 83.4738 8.66C83.9938 8.89 84.3938 9.215 84.6738 9.635C84.9638 10.045 85.1088 10.52 85.1088 11.06C85.1088 11.56 84.9738 12.01 84.7038 12.41C84.4438 12.8 84.0838 13.13 83.6238 13.4C83.1638 13.67 82.6388 13.87 82.0488 14C81.4588 14.13 80.8288 14.185 80.1588 14.165C79.4988 14.145 78.8338 14.05 78.1638 13.88C77.4938 13.7 76.8538 13.43 76.2438 13.07ZM85.8475 14L90.5275 3.5H92.9275L97.6225 14H95.0725L91.2325 4.73H92.1925L88.3375 14H85.8475ZM88.1875 11.75L88.8325 9.905H94.2325L94.8925 11.75H88.1875ZM13.7226 32L10.4526 26.945L12.4176 25.76L16.4826 32H13.7226ZM6.89756 32V21.5H9.31256V32H6.89756ZM8.60756 27.77V25.745H12.2676V27.77H8.60756ZM12.6426 27.02L10.4076 26.75L13.8126 21.5H16.3776L12.6426 27.02ZM16.2308 32L20.9108 21.5H23.3108L28.0058 32H25.4558L21.6158 22.73H22.5758L18.7208 32H16.2308ZM18.5708 29.75L19.2158 27.905H24.6158L25.2758 29.75H18.5708ZM29.3983 32V21.5H33.9433C34.8833 21.5 35.6933 21.655 36.3733 21.965C37.0533 22.265 37.5783 22.7 37.9483 23.27C38.3183 23.84 38.5033 24.52 38.5033 25.31C38.5033 26.09 38.3183 26.765 37.9483 27.335C37.5783 27.905 37.0533 28.345 36.3733 28.655C35.6933 28.955 34.8833 29.105 33.9433 29.105H30.7483L31.8283 28.01V32H29.3983ZM31.8283 28.28L30.7483 27.125H33.8083C34.5583 27.125 35.1183 26.965 35.4883 26.645C35.8583 26.325 36.0433 25.88 36.0433 25.31C36.0433 24.73 35.8583 24.28 35.4883 23.96C35.1183 23.64 34.5583 23.48 33.8083 23.48H30.7483L31.8283 22.325V28.28ZM42.0783 32V22.925L42.6333 23.48H38.7333V21.5H47.8383V23.48H43.9383L44.4783 22.925V32H42.0783ZM49.3641 32V21.5H51.7791V28.34L56.7891 21.5H59.0691V32H56.6691V25.175L51.6591 32H49.3641ZM68.8834 21.5H71.3134V32H68.8834V21.5ZM64.1134 32H61.6834V21.5H64.1134V32ZM69.0634 27.695H63.9334V25.64H69.0634V27.695ZM80.7392 32L77.4692 26.945L79.4342 25.76L83.4992 32H80.7392ZM73.9142 32V21.5H76.3292V32H73.9142ZM75.6242 27.77V25.745H79.2842V27.77H75.6242ZM79.6592 27.02L77.4242 26.75L80.8292 21.5H83.3942L79.6592 27.02ZM85.1879 30.02C85.7679 30.19 86.2529 30.24 86.6429 30.17C87.0429 30.09 87.3979 29.81 87.7079 29.33L88.2179 28.565L88.4429 28.31L91.9229 21.5H94.3079L89.8379 29.81C89.4379 30.56 88.9629 31.135 88.4129 31.535C87.8729 31.935 87.2779 32.16 86.6279 32.21C85.9779 32.27 85.3029 32.155 84.6029 31.865L85.1879 30.02ZM88.3979 30.335L83.6579 21.5H86.2529L89.7329 28.55L88.3979 30.335Z" fill="#CFABFD"/>
<path d="M114.605 28.3894C122.749 29.7459 128.14 39.0199 131.783 45.5393C137.038 54.9435 141.906 65.6115 141.986 76.6314C142.106 93.1029 129.58 110.085 117.757 120.309C105.661 130.769 92.3681 137.611 76.5722 140.494" stroke="#F23D7E" stroke-width="3" stroke-linecap="round"/>
<path d="M77.0395 139.818C79.7766 137.672 81.0285 134.169 82.5443 131.133" stroke="#F23D7E" stroke-width="3" stroke-linecap="round"/>
<path d="M76.7808 141.637C80.8746 141.707 84.9398 147.497 85.6244 151.249" stroke="#F23D7E" stroke-width="3" stroke-linecap="round"/>
</svg>
